<?xml version="1.0" encoding="utf-8"?>
<!-- Generator: Adobe Illustrator 19.0.1, SVG Export Plug-In . SVG Version: 6.00 Build 0)  -->
<svg version="1.1" id="Layer_1" xmlns="http://www.w3.org/2000/svg" xmlns:xlink="http://www.w3.org/1999/xlink" x="0px" y="0px"
	 viewBox="-290 382 30 30" style="enable-background:new -290 382 30 30;" xml:space="preserve">
<style type="text/css">
	.st0{fill:none;stroke:#FFFFFF;stroke-width:2;}
</style>
<title>ico-filters</title>
<desc>Created with Sketch.</desc>
<g id="my-invoices">
	<g id="my-invoices-i-dt" transform="translate(-375.000000, -122.000000)">
		<g id="filters-btn" transform="translate(366.000000, 115.000000)">
			<g id="active">
				<g id="Group-8" transform="translate(9.000000, 7.000000)">
					<g id="Page-1" transform="translate(5.000000, 4.000000)">
						<path id="Stroke-1" class="st0" d="M-286.6,395.6c0.8,0.8,0.8,2,0,2.8c-0.8,0.8-2,0.8-2.8,0c-0.8-0.8-0.8-2,0-2.8
							C-288.6,394.8-287.4,394.8-286.6,395.6z"/>
						<path id="Stroke-3" class="st0" d="M-278.6,385.6c0.8,0.8,0.8,2,0,2.8c-0.8,0.8-2,0.8-2.8,0c-0.8-0.8-0.8-2,0-2.8
							C-280.6,384.8-279.4,384.8-278.6,385.6z"/>
						<path id="Stroke-5" class="st0" d="M-270.6,392.6c0.8,0.8,0.8,2,0,2.8c-0.8,0.8-2,0.8-2.8,0c-0.8-0.8-0.8-2,0-2.8
							C-272.6,391.8-271.4,391.8-270.6,392.6z"/>
						<path id="Stroke-7" class="st0" d="M-288,382v13"/>
						<path id="Stroke-9" class="st0" d="M-288,399v5"/>
						<path id="Stroke-11" class="st0" d="M-280,382v3"/>
						<path id="Stroke-13" class="st0" d="M-280,389v15"/>
						<path id="Stroke-15" class="st0" d="M-272,382v10"/>
						<path id="Stroke-17" class="st0" d="M-272,396v8"/>
					</g>
				</g>
			</g>
		</g>
	</g>
</g>
</svg>
