<?xml version="1.0" encoding="UTF-8"?>
<svg width="23px" height="23px" viewBox="0 0 23 23" version="1.1" xmlns="http://www.w3.org/2000/svg" xmlns:xlink="http://www.w3.org/1999/xlink">
    <!-- Generator: Sketch 46.2 (44496) - http://www.bohemiancoding.com/sketch -->
    <title>ico-question</title>
    <desc>Created with Sketch.</desc>
    <defs></defs>
    <g id="Symbols" stroke="none" stroke-width="1" fill="none" fill-rule="evenodd">
        <g id="ico-question" fill="#A5ACB5">
            <g id="question">
                <g id="Group-3" transform="translate(8.000000, 5.000000)">
                    <path d="M4.4997,12 C4.4997,12.828 3.8287,13.5 2.9997,13.5 C2.1717,13.5 1.4997,12.828 1.4997,12 C1.4997,11.172 2.1717,10.5 2.9997,10.5 C3.8287,10.5 4.4997,11.172 4.4997,12" id="Fill-1"></path>
                    <path d="M3.9997,9 C3.9997,8.08411999 4.32066311,7.57905719 5.21011761,6.83820089 C5.27959007,6.78033496 5.59871187,6.5194371 5.68571677,6.44670923 C6.34764532,5.89339949 6.72475085,5.46663823 6.95919163,4.86098824 C8.01895901,2.12320471 6.66745387,-1 2.9997,-1 C0.453833824,-1 -1.0003,0.799640031 -1.0003,3 L0.9997,3 C0.9997,1.8215517 1.66352504,1 2.9997,1 C5.03031097,1 5.70531721,2.55987763 5.0940509,4.13901176 C5.01437653,4.34484106 4.82391706,4.56037945 4.40302005,4.91220959 C4.32675767,4.97595773 4.00945162,5.23537113 3.93011161,5.30145607 C2.62944014,6.3848287 1.9997,7.37577845 1.9997,9 L3.9997,9 Z" id="Stroke-3" fill-rule="nonzero"></path>
                </g>
            </g>
        </g>
    </g>
</svg>