<?xml version="1.0" encoding="UTF-8"?>
<svg width="30px" height="30px" viewBox="0 0 30 30" version="1.1" xmlns="http://www.w3.org/2000/svg" xmlns:xlink="http://www.w3.org/1999/xlink">
    <!-- Generator: Sketch 46.2 (44496) - http://www.bohemiancoding.com/sketch -->
    <title>ico-filters</title>
    <desc>Created with Sketch.</desc>
    <defs></defs>
    <g id="my-invoices" stroke="none" stroke-width="1" fill="none" fill-rule="evenodd">
        <g id="my-invoices-i-dt" transform="translate(-375.000000, -122.000000)" stroke-width="2" stroke="#3F77BF">
            <g id="filters-btn" transform="translate(366.000000, 115.000000)">
                <g id="active">
                    <g id="Group-8" transform="translate(9.000000, 7.000000)">
                        <g id="Page-1" transform="translate(5.000000, 4.000000)">
                            <path d="M3.4141,13.5859 C4.1951,14.3669 4.1951,15.6329 3.4141,16.4139 C2.6331,17.1949 1.3671,17.1949 0.5861,16.4139 C-0.1949,15.6329 -0.1949,14.3669 0.5861,13.5859 C1.3671,12.8049 2.6331,12.8049 3.4141,13.5859 Z" id="Stroke-1"></path>
                            <path d="M11.4141,3.5859 C12.1951,4.3669 12.1951,5.6329 11.4141,6.4139 C10.6331,7.1949 9.3671,7.1949 8.5861,6.4139 C7.8051,5.6329 7.8051,4.3669 8.5861,3.5859 C9.3671,2.8049 10.6331,2.8049 11.4141,3.5859 Z" id="Stroke-3"></path>
                            <path d="M19.4141,10.5859 C20.1951,11.3669 20.1951,12.6329 19.4141,13.4139 C18.6331,14.1949 17.3671,14.1949 16.5861,13.4139 C15.8051,12.6329 15.8051,11.3669 16.5861,10.5859 C17.3671,9.8049 18.6331,9.8049 19.4141,10.5859 Z" id="Stroke-5"></path>
                            <path d="M2,0 L2,13" id="Stroke-7"></path>
                            <path d="M2,17 L2,22" id="Stroke-9"></path>
                            <path d="M10,0 L10,3" id="Stroke-11"></path>
                            <path d="M10,7 L10,22" id="Stroke-13"></path>
                            <path d="M18,0 L18,10" id="Stroke-15"></path>
                            <path d="M18,14 L18,22" id="Stroke-17"></path>
                        </g>
                    </g>
                </g>
            </g>
        </g>
    </g>
</svg>