<svg xmlns="http://www.w3.org/2000/svg" width="43" height="43" viewBox="0 0 43 43"><defs><style>.a{fill:#fff;}</style></defs><g transform="translate(0 -0.001)"><g transform="translate(8.458 14.398)"><path class="a" d="M102.136,171.665a.839.839,0,1,0,0,1.186A.839.839,0,0,0,102.136,171.665Z" transform="translate(-100.705 -171.42)"/></g><g transform="translate(0 32.935)"><path class="a" d="M21.237,396.661a2.936,2.936,0,0,0-2.366-4.674H4.613a2.934,2.934,0,0,0-2.364,4.673A4.2,4.2,0,0,0,0,400.374v.839a.839.839,0,0,0,.839.839H22.645a.839.839,0,0,0,.839-.839v-.839A4.2,4.2,0,0,0,21.237,396.661ZM3.723,394.033a1.25,1.25,0,0,1,.89-.368H18.871a1.258,1.258,0,1,1,0,2.516H4.613a1.258,1.258,0,0,1-.89-2.148Zm-2.046,6.341a2.519,2.519,0,0,1,2.516-2.516h15.1a2.519,2.519,0,0,1,2.516,2.516Z" transform="translate(0 -391.987)"/></g><g transform="translate(0.002 0.001)"><path class="a" d="M42.238,35.285a5.288,5.288,0,0,0-1.012-1.162L37.3,30.7a.846.846,0,0,0-.107-.13.837.837,0,0,0-.228-.161l-2.373-2.07L23.61,18.757a2.515,2.515,0,0,0-.738-4.011l1.016-1.016a3.361,3.361,0,0,0,3.243-.868,3.359,3.359,0,0,0,0-4.751L20.006.985a3.358,3.358,0,0,0-5.619,3.243L4.248,14.367a3.38,3.38,0,0,0-.869-.114A3.359,3.359,0,0,0,1,19.988l7.126,7.126a3.358,3.358,0,0,0,5.619-3.243l1.014-1.014a2.52,2.52,0,0,0,4.013.736l11.7,13.442a.844.844,0,0,0,.114.142c.015.015.031.029.047.042l3.486,4.006c.087.1.179.2.275.3A5,5,0,0,0,37.947,43a5.156,5.156,0,0,0,.707-.049,5.082,5.082,0,0,0,3.749-2.6A4.969,4.969,0,0,0,42.238,35.285ZM16.443,2.173a1.679,1.679,0,0,1,2.376,0L25.944,9.3a1.68,1.68,0,0,1-2.375,2.376L16.443,4.548h0A1.681,1.681,0,0,1,16.443,2.173Zm-4.75,23.753a1.682,1.682,0,0,1-2.376,0L2.191,18.8a1.679,1.679,0,0,1,2.374-2.376l7.127,7.127A1.681,1.681,0,0,1,11.693,25.926Zm3.536-5.911L12.88,22.364,5.754,15.237l9.5-9.5,7.127,7.127-2.353,2.353-.023.022-4.748,4.748Zm3,1.752,0,0-.591.591a.84.84,0,0,1-1.2-1.177l4.77-4.77a.84.84,0,0,1,1.425.6.832.832,0,0,1-.246.594l-.588.588-.012.012Zm1.739.636,2.455-2.455,10.392,9.065-3.792,3.792Zm10.16,11.673,3.956-3.956,1.269,1.107-4.119,4.119Zm10.811,5.459a3.416,3.416,0,0,1-2.514,1.753,3.337,3.337,0,0,1-2.839-.952c-.065-.065-.126-.132-.184-.2l-.008-.009-3.055-3.511,4.282-4.283,3.506,3.058.008.007a3.615,3.615,0,0,1,.693.8A3.316,3.316,0,0,1,40.938,39.536Z" transform="translate(-0.021 -0.001)"/></g><g transform="translate(10.835 8.46)"><path class="a" d="M133.976,100.953a.839.839,0,0,0-1.186,0l-3.559,3.559a.839.839,0,0,0,1.186,1.186l3.559-3.559A.839.839,0,0,0,133.976,100.953Z" transform="translate(-128.985 -100.707)"/></g></g></svg>