<svg xmlns="http://www.w3.org/2000/svg" width="43" height="43" viewBox="0 0 43 43"><defs><style>.a{fill:#589df9;}</style></defs><g transform="translate(0 -0.001)"><g transform="translate(8.08 0.001)"><g transform="translate(0 0)"><path class="a" d="M130.5,20.871H120.354V19.438h2.736a.63.63,0,1,0,0-1.26h-2.736V16.745h1.9a2.632,2.632,0,0,0,1.874-.776l4.143-4.143a1.975,1.975,0,1,0-.891-.891l-4.143,4.143a1.381,1.381,0,0,1-.983.407h-1.9V14.1a3.327,3.327,0,0,0-3.323-3.323h-1.39V5.2a1.976,1.976,0,1,0-1.26,0v5.576h-1.433V8.036a.63.63,0,0,0-1.26,0v2.736h-1.433V.631a.63.63,0,0,0-1.26,0V10.773h-1.433V8.036a.63.63,0,1,0-1.26,0v2.736H104.87v-1.9A2.632,2.632,0,0,0,104.094,7L99.95,2.855a1.977,1.977,0,1,0-.891.891L103.2,7.89a1.38,1.38,0,0,1,.407.983v1.9h-1.39a3.337,3.337,0,0,0-.83.1.63.63,0,0,0,.314,1.22,2.074,2.074,0,0,1,.516-.065h14.811a2.065,2.065,0,0,1,2.063,2.063V28.906a2.075,2.075,0,0,1-.065.516.63.63,0,1,0,1.22.314,3.334,3.334,0,0,0,.1-.83v-1.39h5.576a1.976,1.976,0,1,0,0-1.26h-5.576V24.824h2.736a.63.63,0,0,0,0-1.26h-2.736V22.131H130.5a.63.63,0,0,0,0-1.26ZM128.643,9.549a.717.717,0,1,1-.21.507A.712.712,0,0,1,128.643,9.549ZM98.688,2.484a.716.716,0,1,1,0-1.013A.718.718,0,0,1,98.688,2.484ZM115.012,4.04a.717.717,0,1,1,.717-.717A.717.717,0,0,1,115.012,4.04ZM127.8,26.17a.717.717,0,1,1-.717.717A.717.717,0,0,1,127.8,26.17Z" transform="translate(-96.206 -0.001)"/></g></g><g transform="translate(0 12.792)"><path class="a" d="M34.342,179.141a1.978,1.978,0,0,0-2.276-.371l-4.144-4.144a1.38,1.38,0,0,1-.407-.983v-1.9h1.39a3.335,3.335,0,0,0,.83-.1.63.63,0,1,0-.314-1.22,2.074,2.074,0,0,1-.516.065H14.094a2.065,2.065,0,0,1-2.063-2.063V153.61a2.072,2.072,0,0,1,.065-.516.63.63,0,1,0-1.22-.314,3.33,3.33,0,0,0-.1.83V155H5.2a1.976,1.976,0,1,0,0,1.26h5.576v1.433H8.035a.63.63,0,1,0,0,1.26h2.736v1.433H.63a.63.63,0,0,0,0,1.26H10.772v1.433H8.035a.63.63,0,0,0,0,1.26h2.736v1.433h-1.9A2.632,2.632,0,0,0,7,166.547L2.856,170.69a1.975,1.975,0,1,0,.891.891l4.143-4.143a1.381,1.381,0,0,1,.983-.407h1.9v1.39a3.327,3.327,0,0,0,3.323,3.323h1.39v5.576a1.976,1.976,0,1,0,1.26,0v-5.576h1.433v2.736a.63.63,0,1,0,1.26,0v-2.736H20.87v10.142a.63.63,0,1,0,1.26,0V171.743h1.433v2.736a.63.63,0,1,0,1.26,0v-2.736h1.433v1.9a2.632,2.632,0,0,0,.776,1.874l4.144,4.144a1.976,1.976,0,1,0,3.166-.519Zm-31.02-22.8a.717.717,0,1,1,.717-.717A.717.717,0,0,1,3.323,156.346Zm-.84,16.621a.717.717,0,1,1,.21-.507A.712.712,0,0,1,2.483,172.967Zm14.348,6.226a.717.717,0,1,1-.717-.717A.717.717,0,0,1,16.831,179.192Zm16.621,1.853a.716.716,0,1,1,0-1.013A.717.717,0,0,1,33.452,181.045Z" transform="translate(0 -152.306)"/></g><g transform="translate(14.811 14.139)"><path class="a" d="M189.735,174.019a3.042,3.042,0,0,0-2.334-2.859,2.15,2.15,0,0,0,.062-.507,2.428,2.428,0,0,0-2.523-2.313,2.62,2.62,0,0,0-1.893.787,2.62,2.62,0,0,0-1.893-.787,2.428,2.428,0,0,0-2.523,2.313,2.15,2.15,0,0,0,.062.507,3.042,3.042,0,0,0-2.334,2.859,2.766,2.766,0,0,0,.663,1.792,3.115,3.115,0,0,0-.663,1.91,3.244,3.244,0,0,0,1.515,2.691v0a2.788,2.788,0,0,0,2.9,2.65,3.005,3.005,0,0,0,2.272-1,3.005,3.005,0,0,0,2.272,1,2.807,2.807,0,0,0,2.9-2.486,2.944,2.944,0,0,0,1.521-2.52,2.839,2.839,0,0,0-.876-2.02A2.84,2.84,0,0,0,189.735,174.019Zm-2.229,2.577a1.68,1.68,0,0,1,.969,1.463,1.611,1.611,0,0,1-.555,1.184,2.828,2.828,0,0,0-1.656-1.334.63.63,0,0,0-.378,1.2,1.429,1.429,0,0,1,1.074,1.3,1.665,1.665,0,0,1-3.285,0v-4.039a1.534,1.534,0,0,1,1.642-1.39.63.63,0,0,0,0-1.26,3.079,3.079,0,0,0-1.642.467v-.8a.63.63,0,0,0-1.26,0v3.5a3,3,0,0,0-.7-.322.63.63,0,0,0-.378,1.2,1.429,1.429,0,0,1,1.074,1.3v1.346a1.665,1.665,0,0,1-3.285,0,1.27,1.27,0,0,1,.392-.9.63.63,0,0,0-.888-.894,2.678,2.678,0,0,0-.389.488,1.921,1.921,0,0,1-.63-1.389,2.145,2.145,0,0,1,1.781-1.994.63.63,0,0,0-.282-1.228,3.837,3.837,0,0,0-1.156.471,1.52,1.52,0,0,1-.344-.952,1.891,1.891,0,0,1,2.006-1.726h.017a.629.629,0,0,0,.534-.961l-.014-.023-.008-.011c-.01-.014-.02-.027-.031-.04h0a.935.935,0,0,1-.23-.6,1.285,1.285,0,0,1,2.527,0,.63.63,0,0,0,1.26,0,1.285,1.285,0,0,1,2.527,0,.886.886,0,0,1-.094.4,3.5,3.5,0,0,0-1.034.259.63.63,0,0,0,.489,1.161,2.274,2.274,0,0,1,.871-.176h.035a1.891,1.891,0,0,1,2.005,1.726,1.681,1.681,0,0,1-.969,1.463.63.63,0,0,0,0,1.114Z" transform="translate(-176.357 -168.34)"/></g></g></svg>