<svg xmlns="http://www.w3.org/2000/svg" width="43" height="43" viewBox="0 0 43 43"><defs><style>.a{fill:#2e3a4d;}</style></defs><g transform="translate(0 -8.262)"><g transform="translate(0 8.262)"><path class="a" d="M42.917,32.729A16.886,16.886,0,0,0,29.736,17.96V13.853a2.835,2.835,0,0,0-.689-5.591H23a2.835,2.835,0,0,0-.689,5.591v4.113a16.953,16.953,0,0,0-9.7,6.128c-.021,0-.042,0-.064,0H6.565a.835.835,0,1,0,0,1.669h4.906a16.679,16.679,0,0,0-1.49,3.207H.84a.835.835,0,1,0,0,1.669H9.506a16.865,16.865,0,0,0-.417,3.208H5.375a.835.835,0,1,0,0,1.669H9.116a16.843,16.843,0,0,0,.524,3.208H4.2a.835.835,0,1,0,0,1.669h5.977a16.748,16.748,0,0,0,3.863,5.936,17.042,17.042,0,0,0,10.319,4.855q.832.082,1.665.081a17.085,17.085,0,0,0,9.258-2.719.831.831,0,0,0,.245-1.155.843.843,0,0,0-1.162-.244,15.422,15.422,0,0,1-19.138-2,15.136,15.136,0,0,1,0-21.479,15.373,15.373,0,0,1,21.617,0,15.181,15.181,0,0,1,2.023,19,.831.831,0,0,0,.247,1.154.843.843,0,0,0,1.162-.245A16.826,16.826,0,0,0,42.917,32.729ZM21.824,11.1A1.173,1.173,0,0,1,23,9.931h6.047a1.168,1.168,0,1,1,0,2.337H23A1.173,1.173,0,0,1,21.824,11.1Zm2.166,6.58V13.937h4.066v3.739A17.222,17.222,0,0,0,23.99,17.679Z" transform="translate(0 -8.262)"/><path class="a" d="M436.61,425.5a.84.84,0,1,0,.594.246A.844.844,0,0,0,436.61,425.5Z" transform="translate(-399.172 -388.902)"/><path class="a" d="M167.9,144.609a13.029,13.029,0,1,0,13.029,13.029A13.043,13.043,0,0,0,167.9,144.609Zm0,24.378a11.349,11.349,0,1,1,11.349-11.349A11.362,11.362,0,0,1,167.9,168.986Z" transform="translate(-141.865 -131.602)"/><path class="a" d="M266.8,219.657l-4.16,4.16a2.6,2.6,0,0,0-2.306,0l-1.862-1.862a.84.84,0,1,0-1.188,1.188L259.144,225a2.61,2.61,0,1,0,4.681,0l4.038-4.038h0l.122-.122a.84.84,0,0,0-1.188-1.188Zm-5.313,7.43a.93.93,0,1,1,.93-.93A.931.931,0,0,1,261.484,227.088Z" transform="translate(-235.449 -200.005)"/><path class="a" d="M399.273,289.86h-.778a.84.84,0,0,0,0,1.68h.778a.84.84,0,1,0,0-1.68Z" transform="translate(-364.258 -264.547)"/><path class="a" d="M194.7,289.616h-.778a.84.84,0,1,0,0,1.68h.778a.84.84,0,1,0,0-1.68Z" transform="translate(-176.866 -264.323)"/><path class="a" d="M300.963,185.277a.84.84,0,0,0,.84-.84v-.778a.84.84,0,1,0-1.68,0v.778A.84.84,0,0,0,300.963,185.277Z" transform="translate(-274.917 -166.438)"/><path class="a" d="M300.719,387.393a.84.84,0,0,0-.84.84v.778a.84.84,0,0,0,1.68,0v-.778A.84.84,0,0,0,300.719,387.393Z" transform="translate(-274.693 -353.947)"/><path class="a" d="M.84,351.44a.84.84,0,1,0,.594,1.434A.84.84,0,0,0,.84,351.44Z" transform="translate(0 -320.99)"/></g></g></svg>