<svg xmlns="http://www.w3.org/2000/svg" width="43" height="43.003" viewBox="0 0 43 43.003"><defs><style>.a{fill:#589df9;}</style></defs><g transform="translate(-0.018)"><g transform="translate(0.018)"><g transform="translate(0)"><path class="a" d="M41.91,13.533a3.784,3.784,0,0,0-5.346,0l-3.79,3.794V7.343A3.754,3.754,0,0,0,31.667,4.67L28.1,1.107A3.755,3.755,0,0,0,25.431,0H3.8A3.784,3.784,0,0,0,.018,3.78V39.223A3.784,3.784,0,0,0,3.8,43h25.2a3.784,3.784,0,0,0,3.78-3.78v-11.2l9.136-9.144A3.777,3.777,0,0,0,41.91,13.533ZM25.215,2.52a1.375,1.375,0,0,1,1.107.369l3.563,3.563a1.375,1.375,0,0,1,.369,1.107H25.215Zm5.039,36.7a1.261,1.261,0,0,1-1.26,1.26H3.8a1.261,1.261,0,0,1-1.26-1.26V3.78A1.261,1.261,0,0,1,3.8,2.52H22.7v6.3a1.26,1.26,0,0,0,1.26,1.26h6.3v9.77l-3.717,3.72L24.757,25.35a1.26,1.26,0,0,0-.3.492L22.67,31.188a1.26,1.26,0,0,0,1.594,1.594L29.609,31a1.259,1.259,0,0,0,.492-.3l.153-.153v8.681ZM27.429,26.241l1.782,1.782-.681.681-2.672.891.891-2.673Zm3.563,0L29.21,24.459,35.267,18.4l1.782,1.782ZM40.128,17.1l-1.3,1.3-1.782-1.782,1.3-1.3A1.26,1.26,0,1,1,40.128,17.1Z" transform="translate(-0.018)"/></g></g><g transform="translate(5.057 12.599)"><path class="a" d="M78.916,150H61.278a1.26,1.26,0,0,0,0,2.52H78.916a1.26,1.26,0,0,0,0-2.52Z" transform="translate(-60.018 -150)"/></g><g transform="translate(5.057 17.638)"><path class="a" d="M73.876,210h-12.6a1.26,1.26,0,1,0,0,2.52h12.6a1.26,1.26,0,1,0,0-2.52Z" transform="translate(-60.018 -210)"/></g><g transform="translate(5.057 22.677)"><path class="a" d="M73.876,270h-12.6a1.26,1.26,0,0,0,0,2.52h12.6a1.26,1.26,0,1,0,0-2.52Z" transform="translate(-60.018 -270)"/></g><g transform="translate(5.057 27.717)"><path class="a" d="M73.876,330h-12.6a1.26,1.26,0,0,0,0,2.52h12.6a1.26,1.26,0,1,0,0-2.52Z" transform="translate(-60.018 -330)"/></g><g transform="translate(15.136 35.444)"><path class="a" d="M188.837,422h-7.559a1.26,1.26,0,1,0,0,2.52h7.559a1.26,1.26,0,1,0,0-2.52Z" transform="translate(-180.018 -422)"/></g></g></svg>