<svg xmlns="http://www.w3.org/2000/svg" width="140.4" height="195" viewBox="0 0 140.4 195"><defs><style>.a{fill:#2e3a4d;}</style></defs><g transform="translate(-125.348 -76.208)"><g transform="translate(125.348 76.208)"><path class="a" d="M263.931,271.208H127.147a1.8,1.8,0,0,1-1.8-1.792V78a1.8,1.8,0,0,1,1.8-1.792H230.339a1.8,1.8,0,0,1,1.277.529l33.592,33.683a1.792,1.792,0,0,1,.523,1.263V269.416A1.8,1.8,0,0,1,263.931,271.208Zm-134.985-3.585H262.132v-155.2L229.59,79.793H128.946Z" transform="translate(-125.348 -76.208)"/></g><g transform="translate(143.336 126.556)"><g transform="translate(77.838 4.596)"><path class="a" d="M322.925,177.775h-23.9a1.838,1.838,0,1,1,0-3.677h23.9a1.838,1.838,0,1,1,0,3.677Z" transform="translate(-297.187 -174.098)"/></g><g transform="translate(0 9.191)"><path class="a" d="M182.348,185.762h-23.9a1.839,1.839,0,1,1,0-3.677h23.9a1.839,1.839,0,0,1,0,3.677Z" transform="translate(-156.61 -182.085)"/></g><path class="a" d="M209.923,169.788H158.449a1.838,1.838,0,1,1,0-3.677h51.474a1.838,1.838,0,1,1,0,3.677Z" transform="translate(-156.61 -166.111)"/></g><g transform="translate(142.697 147.473)"><g transform="translate(0)"><path class="a" d="M259.128,264.109H157.286a1.813,1.813,0,0,1-1.786-1.838v-55.8a1.813,1.813,0,0,1,1.786-1.838H259.128a1.813,1.813,0,0,1,1.786,1.838v55.8A1.813,1.813,0,0,1,259.128,264.109Zm-100.054-3.677H257.34V208.307H159.073Z" transform="translate(-155.5 -204.63)"/><g transform="translate(0 27.901)"><path class="a" d="M259.128,256.8H157.286a1.839,1.839,0,0,1,0-3.677H259.128a1.839,1.839,0,0,1,0,3.677Z" transform="translate(-155.5 -253.12)"/></g><g transform="translate(50.869)"><path class="a" d="M248.394,264.109a1.838,1.838,0,0,1-1.838-1.838v-55.8a1.838,1.838,0,1,1,3.676,0v55.8A1.838,1.838,0,0,1,248.394,264.109Z" transform="translate(-246.556 -204.63)"/></g><g transform="translate(77.641)"><path class="a" d="M296.318,264.109a1.839,1.839,0,0,1-1.839-1.838v-55.8a1.838,1.838,0,1,1,3.677,0v55.8A1.839,1.839,0,0,1,296.318,264.109Z" transform="translate(-294.479 -204.63)"/></g></g><g transform="translate(8.732 41.554)"><path class="a" d="M197.1,280.525H172.514a1.838,1.838,0,1,1,0-3.677H197.1a1.838,1.838,0,0,1,0,3.677Z" transform="translate(-170.676 -276.848)"/></g><g transform="translate(8.732 13.979)"><path class="a" d="M197.1,232.6H172.514a1.838,1.838,0,1,1,0-3.677H197.1a1.838,1.838,0,1,1,0,3.677Z" transform="translate(-170.676 -228.924)"/></g><g transform="translate(59.161 13.979)"><path class="a" d="M273.451,232.6H263.57a1.838,1.838,0,1,1,0-3.677h9.881a1.838,1.838,0,0,1,0,3.677Z" transform="translate(-261.731 -228.924)"/></g><g transform="translate(85.651 13.979)"><path class="a" d="M321.375,232.6h-9.881a1.838,1.838,0,1,1,0-3.677h9.881a1.838,1.838,0,1,1,0,3.677Z" transform="translate(-309.655 -228.924)"/></g><g transform="translate(59.161 41.554)"><path class="a" d="M273.451,280.525H263.57a1.838,1.838,0,1,1,0-3.677h9.881a1.838,1.838,0,0,1,0,3.677Z" transform="translate(-261.731 -276.848)"/></g><g transform="translate(85.651 41.554)"><path class="a" d="M321.375,280.525h-9.881a1.838,1.838,0,1,1,0-3.677h9.881a1.838,1.838,0,0,1,0,3.677Z" transform="translate(-309.655 -276.848)"/></g></g><g transform="translate(204.528 214.692)"><path class="a" d="M290.047,369.155a21.792,21.792,0,1,1,21.793-21.792A21.815,21.815,0,0,1,290.047,369.155Zm0-39.907a18.115,18.115,0,1,0,18.116,18.115A18.136,18.136,0,0,0,290.047,329.248Z" transform="translate(-268.256 -325.571)"/><g transform="translate(6.199 6.199)"><path class="a" d="M294.621,367.531a15.593,15.593,0,1,1,15.593-15.593A15.61,15.61,0,0,1,294.621,367.531Zm0-27.509a11.916,11.916,0,1,0,11.917,11.916A11.929,11.929,0,0,0,294.621,340.021Z" transform="translate(-279.029 -336.345)"/></g><g transform="translate(15.234 15.327)"><path class="a" d="M296.573,359.663a1.838,1.838,0,0,1-.856-3.466l7.205-3.777a1.838,1.838,0,1,1,1.707,3.256l-7.2,3.778A1.834,1.834,0,0,1,296.573,359.663Z" transform="translate(-294.732 -352.208)"/><g transform="translate(0.116 3.545)"><path class="a" d="M296.775,368.343a1.838,1.838,0,0,1-.856-3.466l12.01-6.3a1.839,1.839,0,1,1,1.707,3.257l-12.01,6.3A1.829,1.829,0,0,1,296.775,368.343Z" transform="translate(-294.934 -358.369)"/></g></g></g><g transform="translate(227.737 76.208)"><path class="a" d="M344.765,114.431H310.43a1.838,1.838,0,0,1-1.838-1.838V78.047a1.838,1.838,0,0,1,3.143-1.3l34.171,34.4a1.839,1.839,0,0,1-1.14,3.28Zm-32.5-3.677H340.33L312.268,82.505Z" transform="translate(-308.592 -76.209)"/></g><g transform="translate(142.829 96.126)"><g transform="translate(0 0.227)"><path class="a" d="M155.729,125.654V111.218h3.061v14.436Z" transform="translate(-155.729 -111.218)"/></g><g transform="translate(6.06 0.227)"><path class="a" d="M179.068,125.654h-3.89l-6.28-10.921h-.089q.187,2.894.188,4.128v6.793h-2.735V111.218h3.861l6.27,10.812h.069q-.148-2.815-.148-3.979v-6.833h2.755Z" transform="translate(-166.261 -111.218)"/></g><g transform="translate(20.378 0.227)"><path class="a" d="M201.2,111.218h3.09l-4.907,14.436h-3.337l-4.9-14.436h3.09l2.715,8.591q.228.76.469,1.772t.3,1.407a25.412,25.412,0,0,1,.741-3.179Z" transform="translate(-191.144 -111.218)"/></g><g transform="translate(33.876 0)"><path class="a" d="M228.348,118.249a7.832,7.832,0,0,1-1.777,5.51,7.7,7.7,0,0,1-10.19,0,7.865,7.865,0,0,1-1.777-5.53,7.759,7.759,0,0,1,1.783-5.505,6.668,6.668,0,0,1,5.11-1.9,6.571,6.571,0,0,1,5.09,1.916A7.852,7.852,0,0,1,228.348,118.249Zm-10.535,0a6.029,6.029,0,0,0,.918,3.643,3.213,3.213,0,0,0,2.745,1.224q3.664,0,3.663-4.868t-3.643-4.878a3.236,3.236,0,0,0-2.755,1.229A6.013,6.013,0,0,0,217.813,118.249Z" transform="translate(-214.603 -110.824)"/></g><g transform="translate(50.03 0.227)"><path class="a" d="M242.678,125.654V111.218h3.061v14.436Z" transform="translate(-242.678 -111.218)"/></g><g transform="translate(55.5 0.02)"><path class="a" d="M258.958,113.405a3.118,3.118,0,0,0-2.676,1.3,6.037,6.037,0,0,0-.948,3.619q0,4.828,3.624,4.829a11.436,11.436,0,0,0,3.683-.761v2.567a10.224,10.224,0,0,1-3.969.741,6.057,6.057,0,0,1-4.818-1.91,8.093,8.093,0,0,1-1.669-5.485,8.959,8.959,0,0,1,.819-3.946,5.928,5.928,0,0,1,2.355-2.6,6.957,6.957,0,0,1,3.6-.9,9.71,9.71,0,0,1,4.226,1.017l-.987,2.488a16.237,16.237,0,0,0-1.63-.671A4.856,4.856,0,0,0,258.958,113.405Z" transform="translate(-252.184 -110.858)"/></g><g transform="translate(68.371 0.227)"><path class="a" d="M282.866,125.654h-8.314V111.218h8.314v2.508h-5.253V116.9H282.5V119.4h-4.888v3.723h5.253Z" transform="translate(-274.552 -111.218)"/></g></g><g transform="translate(142.697 230.05)"><g transform="translate(0 0)"><path class="a" d="M208.818,355.938h-51.48a1.838,1.838,0,0,1,0-3.676h51.48a1.838,1.838,0,1,1,0,3.676Z" transform="translate(-155.5 -352.262)"/></g><g transform="translate(0 9.191)"><path class="a" d="M192.031,371.913H157.338a1.838,1.838,0,0,1,0-3.677h34.693a1.838,1.838,0,1,1,0,3.677Z" transform="translate(-155.5 -368.236)"/></g></g></g></svg>