<svg xmlns="http://www.w3.org/2000/svg" width="44" height="37.533" viewBox="0 0 44 37.533"><defs><style>.a{fill:#2e3a4d;stroke:#2e3a4d;}</style></defs><g transform="translate(0.5 0.5)"><path class="a" d="M41.74,1.26H43V0H41.74a1.978,1.978,0,0,0-1.89,2.052V11.18a10.7,10.7,0,0,0-8.637-1.587L26.332,4.361a3.145,3.145,0,0,0-2.389-1L18.757,3.5a10.77,10.77,0,0,0-4.7,1.234L7.372,8.262a3.578,3.578,0,0,1-1.665.412H4.689V7.144H0V8.4H3.429V22.261H0v1.26H4.689V21.989H6.194a2.715,2.715,0,0,1,1.6.517l3.321,2.4a8.171,8.171,0,0,0,6.815,1.3l6.184-1.574a10.712,10.712,0,0,0,15.738,4.175v5.675a1.978,1.978,0,0,0,1.89,2.052H43v-1.26H41.74a.735.735,0,0,1-.63-.792V2.052A.735.735,0,0,1,41.74,1.26ZM17.618,24.985a6.912,6.912,0,0,1-5.766-1.1l-3.321-2.4a3.966,3.966,0,0,0-2.337-.756h-1.5V9.934H5.707A4.844,4.844,0,0,0,7.96,9.376L14.641,5.85a9.514,9.514,0,0,1,4.151-1.089l5.186-.141a1.887,1.887,0,0,1,1.433.6l4.471,4.793A10.659,10.659,0,0,0,26.756,11.9l-2.424-1.878a2.322,2.322,0,0,0-1.772-.455l-3.295.516A2.294,2.294,0,0,0,17.5,11.454l-1.643,3.833a2.3,2.3,0,0,0,.617,2.662l1.8,1.543a2.313,2.313,0,0,0,2.053.493l3.711-.9a2.069,2.069,0,0,1,1,4.016Zm8.229-12.2a10.6,10.6,0,0,0-2.6,5.188l-3.225.785a1.049,1.049,0,0,1-.933-.224l-1.8-1.543a1.046,1.046,0,0,1-.281-1.21l1.643-3.834a1.042,1.042,0,0,1,.8-.623l3.3-.516a1.053,1.053,0,0,1,.805.207Zm14,14.434a9.454,9.454,0,0,1-14.489-2.908,3.328,3.328,0,0,0,2.362-4.141,3.33,3.33,0,0,0-3.138-2.411,9.449,9.449,0,0,1,15.265-5Zm0,0"/></g></svg>