<svg xmlns="http://www.w3.org/2000/svg" width="43" height="43" viewBox="0 0 43 43"><defs><style>.a{fill:#589df9;}</style></defs><g transform="translate(0 -0.105)"><path class="a" d="M4.362,171.618a39.36,39.36,0,0,0,9.512-2.73,39.325,39.325,0,0,0,9.685-5.95l3.485-2.911,2.693,2.7.869-11.326-11.3.873,2.585,2.591L19.408,156.8a33.806,33.806,0,0,1-6.583,4.016,33.6,33.6,0,0,1-11.1,2.977l-1.685.154.125,1.381,1.687-.154a35,35,0,0,0,11.552-3.1,35.2,35.2,0,0,0,6.852-4.181l3.722-2.9-1.566-1.57,6.69-.516-.515,6.706L27.13,158.15l-4.456,3.722a37.932,37.932,0,0,1-9.345,5.741,37.982,37.982,0,0,1-9.178,2.633L0,170.887l.21,1.371Zm0,0" transform="translate(0 -138.177)"/><path class="a" d="M44.1,13.976V6.737a2.078,2.078,0,0,0-1.572-2.019l-.747-.187a2.059,2.059,0,0,0,.244-.958V2.186a2.076,2.076,0,1,0-4.151,0V3.573a2.062,2.062,0,0,0,.248.965l-.751.18A2.077,2.077,0,0,0,35.8,6.737v7.239h1.432l.593,8.323H36.242L34.5,23.757A60.582,60.582,0,0,1,19.856,32.8,60.533,60.533,0,0,1,3.7,37.312l-2.488.332v5.462H44.1V22.3H42.078l.593-8.323ZM39.26,2.186a.692.692,0,1,1,1.384,0V3.573a.692.692,0,1,1-1.384,0ZM35.382,24.823l.418-.349V41.718H30.265V28.662A62.089,62.089,0,0,0,35.382,24.823Zm-6.5,16.9H23.347V32.692a61.845,61.845,0,0,0,5.535-3.13Zm-8.473-7.643c.523-.228,1.039-.469,1.555-.711v8.354H16.428V35.649Q18.442,34.931,20.408,34.075Zm-5.364,7.643H9.509V37.658q2.8-.643,5.535-1.543ZM2.591,38.858l1.287-.172q2.137-.286,4.248-.719v3.752H2.591Zm40.128,2.86H37.184V23.686h5.535ZM39.212,22.3l-.692-9.71H37.184V6.737a.692.692,0,0,1,.525-.673l1.636-.41h1.213l1.636.41a.693.693,0,0,1,.524.674v5.852H41.383l-.692,9.71Zm0,0" transform="translate(-1.103)"/></g></svg>