<svg xmlns="http://www.w3.org/2000/svg" width="18" height="18" viewBox="0 0 18 18"><defs><style>.a{fill:#b1afb0;}</style></defs><path class="a" d="M12.375,0H5.625A5.626,5.626,0,0,0,0,5.625v6.75A5.626,5.626,0,0,0,5.625,18h6.75A5.626,5.626,0,0,0,18,12.375V5.625A5.626,5.626,0,0,0,12.375,0Zm3.938,12.375a3.942,3.942,0,0,1-3.937,3.938H5.625a3.942,3.942,0,0,1-3.937-3.937V5.625A3.942,3.942,0,0,1,5.625,1.688h6.75a3.942,3.942,0,0,1,3.938,3.938Z"/><g transform="translate(4.5 4.5)"><path class="a" d="M132.5,128a4.5,4.5,0,1,0,4.5,4.5A4.5,4.5,0,0,0,132.5,128Zm0,7.313a2.813,2.813,0,1,1,2.813-2.812A2.816,2.816,0,0,1,132.5,135.313Z" transform="translate(-128 -128)"/></g><g transform="translate(13.238 3.563)"><circle class="a" cx="0.6" cy="0.6" r="0.6"/></g></svg>