<svg xmlns="http://www.w3.org/2000/svg" width="182.307" height="80" viewBox="0 0 182.307 80"><defs><style>.a{fill:#5ca0f6;}.b{fill:#fff;}</style></defs><g transform="translate(-51.662 73.281)"><g transform="translate(51.662 -73.281)"><circle class="a" cx="5.307" cy="5.307" r="5.307" transform="translate(7.492)"/><path class="a" d="M2379.374,570.422h6.868V541.39h-.624a6.243,6.243,0,0,0-6.243,6.243Z" transform="translate(-2379.374 -527.342)"/><path class="b" d="M2489.924,581.909H2486.8a8.438,8.438,0,0,1-8.428-8.429V548.819a8.438,8.438,0,0,1,8.428-8.429h3.122a8.438,8.438,0,0,1,8.428,8.429V573.48A8.438,8.438,0,0,1,2489.924,581.909Zm-3.122-34.651a1.563,1.563,0,0,0-1.561,1.561V573.48a1.563,1.563,0,0,0,1.561,1.561h3.122a1.563,1.563,0,0,0,1.561-1.561V548.819a1.563,1.563,0,0,0-1.561-1.561Z" transform="translate(-2447.469 -526.655)"/><path class="b" d="M2766.924,581.909H2763.8a8.438,8.438,0,0,1-8.428-8.429V548.819a8.438,8.438,0,0,1,8.428-8.429h3.122a8.438,8.438,0,0,1,8.428,8.429V573.48A8.438,8.438,0,0,1,2766.924,581.909Zm-3.122-34.651a1.563,1.563,0,0,0-1.561,1.561V573.48a1.563,1.563,0,0,0,1.561,1.561h3.122a1.563,1.563,0,0,0,1.561-1.561V548.819a1.563,1.563,0,0,0-1.561-1.561Z" transform="translate(-2637.998 -526.655)"/><path class="b" d="M2630.924,581.909H2627.8a8.438,8.438,0,0,1-8.428-8.429V540.39h6.868v33.09a1.563,1.563,0,0,0,1.561,1.561h3.122a1.563,1.563,0,0,0,1.561-1.561V540.39h6.868v33.09A8.438,8.438,0,0,1,2630.924,581.909Z" transform="translate(-2544.453 -526.655)"/><path class="b" d="M2838.924,581.909H2835.8a8.438,8.438,0,0,1-8.429-8.429V540.39h6.868v33.09a1.563,1.563,0,0,0,1.561,1.561h3.122a1.563,1.563,0,0,0,1.561-1.561V540.39h6.868v33.09A8.438,8.438,0,0,1,2838.924,581.909Z" transform="translate(-2687.522 -526.655)"/><path class="b" d="M2708.543,581.909h-17.169V540.39h6.868v34.651h10.3Z" transform="translate(-2593.977 -526.655)"/><path class="b" d="M2910.924,581.909H2907.8a8.438,8.438,0,0,1-8.429-8.429v-3.122h6.868v3.122a1.563,1.563,0,0,0,1.561,1.561h3.122a1.563,1.563,0,0,0,1.561-1.561v-4.8a1.556,1.556,0,0,0-.579-1.214l-9.407-7.615a8.393,8.393,0,0,1-3.125-6.551v-4.485a8.438,8.438,0,0,1,8.429-8.429h3.122a8.438,8.438,0,0,1,8.429,8.429v3.122h-6.868v-3.122a1.562,1.562,0,0,0-1.561-1.561H2907.8a1.563,1.563,0,0,0-1.561,1.561V553.3a1.555,1.555,0,0,0,.579,1.213l9.407,7.615a8.393,8.393,0,0,1,3.125,6.551v4.8A8.438,8.438,0,0,1,2910.924,581.909Z" transform="translate(-2737.046 -526.655)"/><path class="b" d="M2416.242,581.909h-6.868V540.39h10.614a8.438,8.438,0,0,1,8.429,8.429v12.487a8.438,8.438,0,0,1-8.429,8.429h-3.746Zm0-19.042h3.746a1.563,1.563,0,0,0,1.561-1.561V548.819a1.563,1.563,0,0,0-1.561-1.561h-3.746Z" transform="translate(-2400.009 -526.655)"/><path class="b" d="M2557.242,581.909h-6.868V540.39h10.614a8.438,8.438,0,0,1,8.429,8.429v12.487a8.438,8.438,0,0,1-8.429,8.429h-3.746Zm0-19.042h3.746a1.562,1.562,0,0,0,1.561-1.561V548.819a1.562,1.562,0,0,0-1.561-1.561h-3.746Z" transform="translate(-2496.993 -526.655)"/></g><g transform="translate(174.667 -5.78)"><path class="a" d="M2777.56,720.1l.223,2.129h.069l.24-2.163,2.095-6.679h1.545l2.061,6.713.24,2.129h.069l.263-2.163,1.489-6.679h2.353l-3.314,12.1h-1.579l-2.146-6.679-.292-1.837h-.086l-.292,1.854-2.129,6.661H2776.7l-3.3-12.1h2.559Z" transform="translate(-2773.405 -713.151)"/><path class="a" d="M2824.115,718.871a7.153,7.153,0,0,1,1.322-4.627,4.592,4.592,0,0,1,3.777-1.622,5.294,5.294,0,0,1,2.249.446,4.241,4.241,0,0,1,1.6,1.271,5.549,5.549,0,0,1,.944,1.974,9.855,9.855,0,0,1,.309,2.558,7.121,7.121,0,0,1-1.331,4.627,4.6,4.6,0,0,1-3.769,1.623,5.331,5.331,0,0,1-2.266-.447,4.168,4.168,0,0,1-1.588-1.27,5.64,5.64,0,0,1-.936-1.975A9.842,9.842,0,0,1,2824.115,718.871Zm2.472,0a8.451,8.451,0,0,0,.155,1.674,4.321,4.321,0,0,0,.472,1.313,2.4,2.4,0,0,0,.815.858,2.2,2.2,0,0,0,1.185.309,2.231,2.231,0,0,0,1.94-.979,5.656,5.656,0,0,0,.687-3.176,8.615,8.615,0,0,0-.146-1.631,4.554,4.554,0,0,0-.455-1.322,2.376,2.376,0,0,0-.807-.884,2.417,2.417,0,0,0-3.159.687A5.677,5.677,0,0,0,2826.587,718.871Z" transform="translate(-2808.285 -712.621)"/><path class="a" d="M2864.925,713.133q.395-.068.85-.129t.91-.095c.3-.023.6-.04.884-.052s.55-.017.79-.017a8.908,8.908,0,0,1,1.657.154,4.527,4.527,0,0,1,1.459.532,2.848,2.848,0,0,1,1.03,1.039,3.242,3.242,0,0,1,.386,1.657,3.935,3.935,0,0,1-.687,2.4,3.539,3.539,0,0,1-1.837,1.288l.841.532,2.748,4.585h-2.713l-2.73-4.7-1.236-.224v4.928h-2.352Zm3.606,1.8q-.361,0-.712.017a2.7,2.7,0,0,0-.541.069v3.485h1a2.5,2.5,0,0,0,1.562-.447,1.742,1.742,0,0,0,.584-1.477,1.557,1.557,0,0,0-.48-1.21A2.026,2.026,0,0,0,2868.531,714.936Z" transform="translate(-2836.355 -712.772)"/><path class="a" d="M2908.39,725.41h-7.606V713.391h2.353v9.924h5.254Z" transform="translate(-2861.02 -713.151)"/><path class="a" d="M2931.8,713.013q.361-.052.815-.086t.936-.052q.481-.017.936-.026t.816-.008a7.455,7.455,0,0,1,2.73.446,4.647,4.647,0,0,1,1.837,1.254,5.027,5.027,0,0,1,1.03,1.923,8.726,8.726,0,0,1,.326,2.455,8.9,8.9,0,0,1-.309,2.352,5.321,5.321,0,0,1-1.03,2.009,5.166,5.166,0,0,1-1.9,1.408,7.051,7.051,0,0,1-2.91.533q-.275,0-.73-.017t-.945-.043l-.936-.052q-.447-.026-.67-.06Zm3.691,1.923q-.378,0-.764.017a4.838,4.838,0,0,0-.575.052v8.052a1.357,1.357,0,0,0,.231.026l.352.017.361.017c.115.006.2.009.257.009a3.5,3.5,0,0,0,1.657-.352,2.816,2.816,0,0,0,1.048-.936,3.773,3.773,0,0,0,.541-1.348,7.9,7.9,0,0,0,.155-1.571,7.472,7.472,0,0,0-.137-1.416,3.551,3.551,0,0,0-.506-1.279,2.86,2.86,0,0,0-1-.927A3.239,3.239,0,0,0,2935.5,714.936Z" transform="translate(-2882.357 -712.772)"/></g></g></svg>