<svg xmlns="http://www.w3.org/2000/svg" width="43" height="43" viewBox="0 0 43 43"><defs><style>.a{fill:#fff;}</style></defs><path class="a" d="M43.285.21a.737.737,0,0,0-1.031,0l-2.7,2.657H22.584L1.252,24.017a2.5,2.5,0,0,0,0,3.576L16.168,42.261a2.607,2.607,0,0,0,3.644-.007L40.584,21.276V3.88l2.7-2.657A.708.708,0,0,0,43.285.21ZM39.126,20.694,18.774,41.247a1.129,1.129,0,0,1-1.576,0L2.282,26.58a1.085,1.085,0,0,1,0-1.552L23.192,4.3H38.1L34.573,7.764a3.665,3.665,0,0,0-2.006-.6,3.584,3.584,0,1,0,3.644,3.583A3.519,3.519,0,0,0,35.6,8.777l3.522-3.464ZM34.753,10.75A2.2,2.2,0,1,1,33.5,8.816l-1.452,1.428a.708.708,0,0,0,0,1.013.737.737,0,0,0,1.031,0l1.452-1.428A2.086,2.086,0,0,1,34.753,10.75Z" transform="translate(-0.499 0)"/></svg>