<svg xmlns="http://www.w3.org/2000/svg" width="44" height="43" viewBox="0 0 44 43"><defs><style>.a{fill:#fff;}</style></defs><g transform="translate(-2 -2)"><path class="a" d="M33.016,39.009a.719.719,0,0,0-.721.717v3.841H3.443V3.433H25.082v6.45a.719.719,0,0,0,.721.717H32.3V23.041a.721.721,0,0,0,1.443,0V9.883a.714.714,0,0,0-.211-.507L26.313,2.21A.724.724,0,0,0,25.8,2H2.721A.719.719,0,0,0,2,2.717V44.283A.719.719,0,0,0,2.721,45h30.3a.719.719,0,0,0,.721-.717V39.725A.719.719,0,0,0,33.016,39.009ZM26.525,9.167V4.447l4.751,4.72Z"/><path class="a" d="M14.492,26.434a.725.725,0,0,0,.325-.077l5.77-2.9a.716.716,0,0,0,.4-.639V15.583a.716.716,0,0,0-.4-.641l-5.77-2.867a.725.725,0,0,0-.645,0L8.4,14.942a.716.716,0,0,0-.4.641V22.75a.716.716,0,0,0,.39.636l5.77,2.966a.716.716,0,0,0,.332.081Zm5.049-4.053-4.328,2.172V18.891l4.328-2.15Zm-5.049-8.862,4.158,2.065-4.158,2.065-1.272-.632-1.613-.8-1.272-.632ZM13.77,24.542,9.443,22.32V16.743l1.443.717,1.443.717,1.443.717Z" transform="translate(-1.672 -2.833)"/><path class="a" d="M37.607,18H31.721a.717.717,0,1,0,0,1.433h5.885a.717.717,0,1,0,0-1.433Z" transform="translate(-8.918 -4.533)"/><path class="a" d="M36.492,22h-5.77a.717.717,0,1,0,0,1.433h5.77a.717.717,0,1,0,0-1.433Z" transform="translate(-7.803 -5.667)"/><path class="a" d="M36.492,26h-5.77a.717.717,0,1,0,0,1.433h5.77a.717.717,0,1,0,0-1.433Z" transform="translate(-7.803 -6.8)"/><path class="a" d="M35.934,53H28.721a.717.717,0,1,0,0,1.433h7.213a.717.717,0,1,0,0-1.433Z" transform="translate(-7.246 -15.45)"/><path class="a" d="M37.049,56H29.721a.717.717,0,1,0,0,1.433h7.328a.717.717,0,1,0,0-1.433Z" transform="translate(-8.361 -15.3)"/><path class="a" d="M50.885,38.867c.881,0,1.443.424,1.443.717H53.77A2.347,2.347,0,0,0,51.607,37.5V36H50.164v1.5A2.345,2.345,0,0,0,48,39.583c0,1.206,1.267,2.15,2.885,2.15.881,0,1.443.424,1.443.717s-.562.717-1.443.717-1.443-.424-1.443-.717H48a2.347,2.347,0,0,0,2.164,2.078v1.5h1.443v-1.5A2.345,2.345,0,0,0,53.77,42.45c0-1.206-1.267-2.15-2.885-2.15-.881,0-1.443-.424-1.443-.717S50,38.867,50.885,38.867Z" transform="translate(-12.82 -9.633)"/><path class="a" d="M48.934,32a7.883,7.883,0,1,0,7.934,7.883A7.909,7.909,0,0,0,48.934,32Zm0,14.333a6.45,6.45,0,1,1,6.492-6.45A6.471,6.471,0,0,1,48.934,46.333Z" transform="translate(-10.869 -8.5)"/><path class="a" d="M29.148,37H14.721a.717.717,0,1,0,0,1.433H29.148a.717.717,0,1,0,0-1.433Z" transform="translate(-3.344 -9.917)"/><path class="a" d="M29.148,41H14.721a.717.717,0,1,0,0,1.433H29.148a.717.717,0,1,0,0-1.433Z" transform="translate(-3.344 -11.05)"/><path class="a" d="M14.721,46.433H29.148a.717.717,0,1,0,0-1.433H14.721a.717.717,0,1,0,0,1.433Z" transform="translate(-3.344 -12.183)"/></g></svg>