<svg xmlns="http://www.w3.org/2000/svg" width="52" height="82" viewBox="0 0 52 82"><defs><style>.a{fill:#808994;}</style></defs><path class="a" d="M58.263,0H19.737A6.755,6.755,0,0,0,13,6.754v68.49A6.756,6.756,0,0,0,19.737,82H58.261A6.755,6.755,0,0,0,65,75.245V6.754A6.755,6.755,0,0,0,58.263,0Zm-42.2,12.267H61.941V60.533H16.059Zm3.678-9.2H58.261a3.688,3.688,0,0,1,3.68,3.688V9.2H16.059V6.754A3.687,3.687,0,0,1,19.737,3.067ZM58.263,78.933H19.737a3.687,3.687,0,0,1-3.678-3.688V63.6H61.941V75.245A3.687,3.687,0,0,1,58.263,78.933Z" transform="translate(-13)"/><path class="a" d="M32.111,49a6.111,6.111,0,1,0,6.111,6.111A6.117,6.117,0,0,0,32.111,49Zm0,9.166a3.055,3.055,0,1,1,3.055-3.055A3.058,3.058,0,0,1,32.111,58.166Z" transform="translate(-6.111 16.195)"/><path class="a" d="M26.528,6.055h6.111a1.528,1.528,0,0,0,0-3.055H26.528a1.528,1.528,0,0,0,0,3.055Z" transform="translate(-6.643 1.583)"/><path class="a" d="M33.528,6.055h1.528a1.528,1.528,0,1,0,0-3.055H33.528a1.528,1.528,0,1,0,0,3.055Z" transform="translate(-2.938 1.583)"/></svg>