<svg xmlns="http://www.w3.org/2000/svg" width="18" height="14" viewBox="0 0 18 14"><defs><style>.a{fill:#b1afb0;}</style></defs><g transform="translate(-0.001 -57.441)"><g transform="translate(0.001 57.441)"><path class="a" d="M18,59.1a7.63,7.63,0,0,1-2.12.557A3.582,3.582,0,0,0,17.5,57.7a7.647,7.647,0,0,1-2.346.858,3.76,3.76,0,0,0-2.7-1.117A3.617,3.617,0,0,0,8.77,60.976a3.4,3.4,0,0,0,.1.806,10.644,10.644,0,0,1-7.61-3.694,3.4,3.4,0,0,0-.5,1.777A3.5,3.5,0,0,0,2.4,62.807a3.818,3.818,0,0,1-1.673-.444v.044a3.582,3.582,0,0,0,2.962,3.467A3.9,3.9,0,0,1,2.714,66a3.7,3.7,0,0,1-.7-.066,3.678,3.678,0,0,0,3.449,2.456A7.62,7.62,0,0,1,.882,69.9,8.193,8.193,0,0,1,0,69.85a10.776,10.776,0,0,0,5.66,1.591A10.2,10.2,0,0,0,16.166,61.382l-.012-.458A7.21,7.21,0,0,0,18,59.1Z" transform="translate(-0.001 -57.441)"/></g></g></svg>