<svg xmlns="http://www.w3.org/2000/svg" width="64" height="64" viewBox="0 0 64 64"><defs><style>.a{fill:#2e3a4d;}</style></defs><path class="a" d="M453.25,154.5a1.251,1.251,0,1,0-.884-.366A1.259,1.259,0,0,0,453.25,154.5Z" transform="translate(-395.5 -133)"/><path class="a" d="M187.62,443.667H187.6a1.25,1.25,0,0,0,0,2.5h.019a1.25,1.25,0,0,0,0-2.5Z" transform="translate(-163.057 -388.209)"/><path class="a" d="M64,50.2V8.75A3.754,3.754,0,0,0,60.25,5H55.968V4.25a4.25,4.25,0,0,0-8.5,0V5H36.234V4.25a4.25,4.25,0,0,0-8.5,0V5H16.5V4.25a4.25,4.25,0,0,0-8.5,0V5H3.75A3.754,3.754,0,0,0,0,8.75v51.5A3.754,3.754,0,0,0,3.75,64H50.2a1.246,1.246,0,0,0,.883-.366h0L63.634,51.083h0A1.247,1.247,0,0,0,64,50.2ZM49.968,4.25a1.75,1.75,0,0,1,3.5,0v6.125a1.75,1.75,0,0,1-3.5,0Zm-19.734,0a1.75,1.75,0,1,1,3.5,0v6.125a1.75,1.75,0,0,1-3.5,0V4.25ZM10.5,4.25a1.75,1.75,0,0,1,3.5,0v6.125a1.75,1.75,0,0,1-3.5,0Zm-8,56V57.958H19.563a1.25,1.25,0,0,0,0-2.5H2.5V21.5H52.75a1.25,1.25,0,0,0,0-2.5H2.5V8.75A1.251,1.251,0,0,1,3.75,7.5H8v2.875a4.25,4.25,0,0,0,8.5,0V7.5H27.734v2.875a4.25,4.25,0,1,0,8.5,0V7.5H47.468v2.875a4.25,4.25,0,0,0,8.5,0V7.5H60.25A1.251,1.251,0,0,1,61.5,8.75v40.2H52.7a3.754,3.754,0,0,0-3.75,3.75v8.8H3.75A1.251,1.251,0,0,1,2.5,60.25Zm48.949-.518V52.7a1.251,1.251,0,0,1,1.25-1.25h7.033Z"/></svg>