<svg xmlns="http://www.w3.org/2000/svg" width="18" height="12" viewBox="0 0 18 12"><defs><style>.a{fill:#b1afb0;}</style></defs><g transform="translate(0 -80)"><g transform="translate(0 80)"><path class="a" d="M17.235,81.156c-.488-.842-1.018-1-2.1-1.056S11.35,80,9,80s-5.064.029-6.14.1-1.608.214-2.1,1.057S0,83.446,0,86v.009c0,2.54.259,4,.762,4.832s1.023.995,2.1,1.066S6.65,92,9,92s5.058-.036,6.137-.1,1.609-.224,2.1-1.066c.507-.832.764-2.292.764-4.832V86C18,83.446,17.743,82,17.235,81.156ZM6.75,89.273V82.727L12.375,86Z" transform="translate(0 -80)"/></g></g></svg>